<?xml version="1.0" encoding="utf-8"?>
<!-- Generator: Adobe Illustrator 18.1.1, SVG Export Plug-In . SVG Version: 6.00 Build 0)  -->
<svg version="1.0" id="Layer_1" xmlns="http://www.w3.org/2000/svg" xmlns:xlink="http://www.w3.org/1999/xlink" x="0px" y="0px"
	 viewBox="0 0 120 155" enable-background="new 0 0 120 155" xml:space="preserve">
<path fill="#098178" d="M116.5,81.8c0,0,0-0.1,0-0.2c0,0,0,0,0-0.1c0,0,0,0,0,0c0.2-0.1,0-0.4-0.1-0.3c0,0-0.1,0-0.1,0
	c-1.5-1.7-6.4-0.7-8.3-0.5c-4.8,0.5-9.4,2.3-13.2,5.3c-0.9,0.3-1.7,0.7-2.5,1.1c-0.1,0-0.1,0-0.2,0.1c2.5-2.2,4.9-4.5,7.3-6.8
	c0.5,0.2,1.2,0.2,1.7,0.2c0.6-0.1,1.3-0.2,1.8-0.5c0.1,0.1,0.1,0.2,0.2,0.3c0.6,0.5,1.8-0.1,2.1-0.7c0.3-0.6-0.2-1.1-0.8-1.2
	c-0.3,0-0.5,0-0.8,0.1c0,0-0.1,0-0.2,0c-0.2,0.1-0.3,0.3-0.4,0.4c0,0-0.1,0.1-0.1,0.1c-0.1,0.3-0.2,0.5-0.2,0.8
	c-1,0.5-2.1,0.4-3.1,0.2c0.3-0.3,0.6-0.6,1-0.9c1-0.9,1.9-1.9,2.7-3c0,0.1,0,0.3,0.2,0.2c0.2-0.1,0.4-0.1,0.6-0.2
	c0.7,0,1.4-0.2,2.1-0.3c0,0.8,0.5,1.8,1.3,1.9c0.1,0,0.1-0.1,0.1-0.1c-0.2-0.3-0.5-0.5-0.7-0.7c-0.3-0.3-0.5-0.7-0.5-1.1
	c0.4-0.1,0.8-0.2,1.3-0.3c0.3,0.5,1.4,0.8,2,0.7c0,0,0,0.1,0,0.1c0,0.2,0,0.3,0.1,0.5c0,0.2,0.1,0.4,0.2,0.5
	c0.4,0.5,1.3,0.7,1.9,0.5c0.6-0.1,1.3-0.8,1.3-1.5c-0.1-0.7-0.7-0.9-1.3-1.1c-0.6-0.1-1.4,0-1.9,0.4c-0.1,0.1-0.2,0.2-0.2,0.3
	c-0.3-0.2-0.7-0.2-1-0.3c-0.3-0.1-0.5-0.2-0.7-0.4c0.5-0.2,0.9-0.3,1.3-0.5c0,0,0,0,0,0.1c0,0.1,0.2,0.1,0.2,0c0-0.1,0-0.1,0-0.2
	c0.8-0.4,1.6-0.7,2.3-1.2c0.5,0.9,2.1,1.3,3.1,0.5c0.4-0.1,0.8-0.3,1.1-0.5c0.4-0.2,0.8-0.5,1.2-0.9c0.1,0,0.1-0.1,0.2-0.1
	c0.9-0.5,2.9-1.8,1.6-2.9c-0.2-0.2-0.6-0.3-1-0.3c-0.5-0.3-1.1-0.4-1.7-0.3c-1.7,0.1-3.3,1.5-4.2,2.9c-0.3,0.4-0.4,0.7-0.4,1l0,0
	c0,0.1-0.1,0.1,0,0.2c-0.6,0.4-1.3,0.7-2,0.9c0-0.3,0.1-0.6,0.1-0.9c0.1-0.4,0.2-0.7,0.4-1c0.2,0,0.4,0,0.6,0c0.3,0,0.5-0.2,0.6-0.4
	c0.2-0.4,0-0.9-0.4-1.1c-0.1-0.1-0.2-0.1-0.3-0.1c0.1-0.1-0.1-0.3-0.2-0.2c-0.1,0.1-0.3,0.2-0.5,0.4l0,0l0,0
	c-0.1,0.1-0.1,0.1-0.1,0.2c-0.2,0.3-0.3,0.6-0.1,0.9c0,0,0.1,0.1,0.1,0.1c-0.4,0.6-0.7,1.4-0.7,2.1c-1.7,0.6-3.6,1-5.4,1.6
	c0,0,0-0.1,0-0.1c0-0.1-0.1-0.1-0.2-0.2c0.6-0.8,1.2-1.7,1.8-2.5c0,0,0,0,0,0c0.2-0.3,0.5-0.6,0.7-1c0.2-0.3,0.3-0.5,0.5-0.8
	c1.3-0.6,2.7-1.3,3.9-2.3c1.1,0.2,2.3,0,3.2-0.5c0.1-0.1,0-0.3-0.1-0.2c-0.9,0.5-1.8,0.6-2.8,0.5c0.6-0.5,1.2-1.2,1.6-1.9
	c0,0,0.1,0,0.1,0c0.2,0.1,0.3-0.2,0.1-0.3c0,0,0,0-0.1,0c0-0.1,0.1-0.2,0.1-0.3c0.1,0.1,0.3,0.2,0.4,0.2c0.2,0.1,0.5,0.1,0.8,0.1
	c1.4-0.1,2.3-1.9,2.6-3.1c0.3-1.1-0.1-2.5-1.4-2.5c-0.1,0-0.2,0-0.3,0c-0.4,0-0.6,0.2-0.9,0.4c-0.8,0.6-1.5,1.7-1.8,2.4
	c-0.4,0.9-0.6,2.2,0.2,2.9c-0.6,0.8-1.3,1.4-2.1,1.9l0,0c-0.1,0-0.1,0-0.1,0.1c-1,0.7-2.2,1.3-3.2,2.1c0.6-1.2,1.2-2.4,1.2-3.7
	c0.2,0,0.4,0,0.6-0.1c1.1-0.5,1-2.2,0.8-3.1c-0.2-1-0.7-2.4-1.7-2.9c-1.1-0.5-1.7,1.2-1.8,2c-0.2,1.5,0.5,3.7,1.8,4.6h0
	c-0.3,1.8-1.4,3.4-2.3,5c-0.1-0.5-0.4-0.9-0.4-1.4c-0.1-0.4,0-0.8,0-1.2c0.1,0,0.3,0,0.4,0c0.1,0,0.1-0.1,0.1-0.1
	c0.1,0,0.2-0.1,0.2-0.2c0.2-0.3,0.3-0.6,0.2-1c0-0.3-0.1-0.5-0.2-0.7c-0.1-0.2-0.3-0.3-0.5-0.4l0,0l0,0c0,0,0-0.1-0.1-0.1
	c-0.6,0-1.1,0.9-1.2,1.4c-0.1,0.5,0.2,0.9,0.6,1.1c0,0,0,0,0.1,0c0,0,0.1,0,0.1,0.1c-0.2,1-0.2,2.2,0.4,3c0,0.1-0.1,0.2-0.1,0.2
	c-1.6,2.5-3.7,4.7-5.9,6.8c-0.1,0-0.2,0-0.3-0.1c-0.1,0-0.1,0.1-0.1,0.1c0,0,0.1,0.1,0.1,0.1c0,0-0.1,0.1-0.1,0.1
	c-1.5,1.4-3,2.8-4.5,4.2c1.4-1.4,2.3-3.1,2.9-5l0,0c0.1,0.1,0.1,0.1,0.2,0c2.2-2.3,2.9-5.4,3.1-8.5c0.1-1.6,0-3.3-0.3-5
	c-0.3-1.9-1.6-3.2-2-5c0-0.1-0.2-0.1-0.3,0c-1.5,3.1-2,6.4-2,9.9c0,2.7-0.3,5.9,0.6,8.5c-0.5,1.6-1.3,3.2-2.3,4.7l0,0
	c-0.5,0.6-1,1.2-1.5,1.8C90,88.3,87.1,90.7,84,93c-0.1,0.1,0,0.3,0.1,0.2c2.5-1.5,4.8-3.3,7-5.2l0,0c0.1,0,0.1-0.1,0.2-0.1
	c0.5-0.2,1-0.4,1.5-0.5c0,0,0,0.1,0.1,0.1c0.3-0.1,0.5-0.1,0.7-0.2c4.4-0.2,8.8,0.6,13.1-0.1C110.5,86.5,114.1,84.6,116.5,81.8z
	 M104.6,78.9c0.2,0.1,0.4,0.2,0.3,0.4c-0.1,0.5-1,0.9-1.4,0.7c0,0-0.1,0-0.1-0.1c0.5,0,0.9-0.3,1.2-0.7c0.1-0.1,0-0.3-0.1-0.3
	C104.5,79,104.5,79,104.6,78.9z M103.2,79.6C103.2,79.5,103.2,79.5,103.2,79.6c0.2-0.2,0.3-0.4,0.4-0.5c0.2-0.1,0.4-0.2,0.6-0.2
	c0,0,0,0,0,0C103.8,79.1,103.5,79.3,103.2,79.6L103.2,79.6z M112.2,76.7c0.1-0.1,0.1-0.2,0.1-0.3c0,0,0,0,0,0c0.1,0,0.2-0.1,0.2-0.2
	c0.3,0.4-0.2,0.9-0.5,1.1c-0.3,0.1-0.5,0.1-0.8,0.1C111.6,77.3,112,77,112.2,76.7z M110.9,76.7c0.3,0,0.6,0,0.9-0.2
	c-0.2,0.2-0.4,0.3-0.6,0.4c-0.2,0-0.5,0-0.8-0.1c0.1,0,0.3-0.1,0.4-0.1C110.8,76.7,110.9,76.7,110.9,76.7z M111.4,75.8
	c0.1,0,0.2,0,0.4,0c-0.5,0.1-1,0.4-1.4,0.7c0-0.2,0.1-0.4,0.3-0.6v0C110.8,75.8,111.2,75.8,111.4,75.8z M113.9,72.4
	c0.2-0.2,0.4-0.4,0.7-0.5c0.1,0,0.3,0,0.4,0c0.1,0,0.2-0.1,0.2-0.2h0c-0.3,0.6-0.9,1-1.5,0.9C113.7,72.5,113.8,72.5,113.9,72.4z
	 M113.2,74c-0.5,0-0.7-0.1-0.9-0.3c0.2,0.1,0.4,0.1,0.6,0.1C113.1,73.9,113.2,74,113.2,74C113.3,74,113.2,74,113.2,74z M115.2,72.4
	c0.2-0.2,0.3-0.5,0.4-0.8c0-0.1-0.1-0.2-0.2-0.2c-0.2,0-0.3,0-0.5,0.1l0,0c0.8-0.3,1.7-0.5,2.5-0.6C117,71.6,116.2,72.1,115.2,72.4z
	 M116.2,72.6c0.5-0.2,0.8-0.5,1.2-0.8c-0.1,0.2-0.2,0.3-0.4,0.5C116.7,72.4,116.4,72.5,116.2,72.6z M118,69.9
	c0.3,0.2,0.4,0.4,0.5,0.8c0,0.2,0.2,0.1,0.2,0c0-0.3-0.1-0.5-0.2-0.6c0,0,0.1,0,0.1,0c0.8,0.5,0.2,1.1-0.6,1.6
	c0.1-0.2,0.2-0.4,0.2-0.6C118.3,70.6,118.2,70.3,118,69.9C117.9,69.9,118,69.9,118,69.9z M117.2,70c0.1,0.1,0.2,0.1,0.3,0.2
	c-0.6,0-1.3,0.2-2,0.4C116.1,70.4,116.7,70.2,117.2,70z M114.7,70.5c0.3-0.3,0.7-0.6,1.2-0.7c0.1,0,0.3-0.1,0.4-0.1l0,0
	c0,0,0.1,0,0.2,0.1C115.8,69.9,115.2,70.2,114.7,70.5z M110.6,71.8c0.1-0.1-0.1-0.2-0.2-0.1c-0.1,0.1-0.1,0.1-0.2,0.2
	c0-0.2,0.1-0.4,0.3-0.5c0.1,0,0.2-0.1,0.3,0c0.2,0.1,0.3,0.3,0.2,0.4c-0.1,0.2-0.4,0.3-0.6,0.3C110.5,72,110.5,71.9,110.6,71.8z
	 M116,64c-0.3,0.9-1,2.1-2,2.3l0,0c0.4-0.3,0.7-0.8,0.9-1.2c0,0,0.1,0,0.1,0c0.8-0.8,1.1-2,0.7-3.1c0-0.1-0.1-0.2-0.1-0.3
	C116.2,62.2,116.2,63.4,116,64z M113.1,63.3c0.6-0.7,1.3-1.3,1.8-1.5c0,0,0,0,0.1,0c0.3,0.1,0.5,0.4,0.5,0.8c0.1,0.4,0.1,0.7,0,1.1
	c-0.1-0.5-0.4-1-1.1-1C113.9,62.7,113.5,62.9,113.1,63.3z M112.7,64.5c0.3-0.7,1.1-1.4,1.8-1.4c0.4,0,0.5,0.3,0.4,0.6v0
	c0-0.1-0.2-0.2-0.3-0.1c-0.6,0.1-1.7,0.9-2.1,1.7C112.6,65.1,112.6,64.8,112.7,64.5z M112.1,65.3c0,0.5,0.3,0.8,0.6,1.1
	c-0.1,0.1-0.1,0.2-0.2,0.3C112.1,66.4,112,65.9,112.1,65.3z M113.1,66.2c0-0.1-0.1-0.2-0.1-0.3c0-0.4,0.4-0.7,0.6-1
	c0.2-0.2,1.1-1.1,1-0.5c0,0.1,0,0.1,0.1,0.2c-0.3,0.6-0.7,1.2-0.9,1.3C113.7,66,113.4,66.3,113.1,66.2
	C113.1,66.2,113.1,66.2,113.1,66.2z M108.9,66.3c-0.1,0.2-0.2,0.4-0.3,0.4c0.5-0.7,0.6-1.7,0.4-2.5
	C109.2,64.9,109.3,65.7,108.9,66.3z M108.5,64C108.5,64,108.5,64,108.5,64C108.5,64,108.5,64,108.5,64c0.3,0.9,0.2,1.8-0.3,2.5
	C107.6,65.8,107.5,64.3,108.5,64z M106.4,64.4c-0.1-0.7,0-3.1,1.2-2.7c0.4,0.1,0.7,0.5,0.9,1c-0.3-0.5-0.8-0.8-1.4-0.4
	C106.5,62.7,106.3,63.6,106.4,64.4C106.4,64.5,106.4,64.4,106.4,64.4z M107.2,62.9c0.5-0.9,1,0.1,1.3,0.7c0,0,0,0-0.1,0
	c-1.3,0.1-1.3,1.7-0.8,2.7c-0.2-0.2-0.3-0.5-0.4-0.6C106.8,64.8,106.6,63.8,107.2,62.9z M107,66.4c0.2,0.4,0.5,0.6,0.8,0.7
	c0,0.1,0,0.2,0,0.3C107.5,67.2,107.2,66.9,107,66.4z M105.1,69.7c0-0.1,0-0.3,0.1-0.4c0-0.1-0.1-0.2-0.2-0.1c0,0.1,0,0.1,0,0.2
	c0,0,0,0,0-0.1c0-0.3,0.1-0.6,0.3-0.8c0,0,0,0,0-0.1c0,0,0.1,0.1,0.1,0.1c0.1,0.3,0.1,0.7,0,0.9C105.3,69.7,105.2,69.7,105.1,69.7z
	 M96.3,71.8c-0.1-3.1,0.2-6.2,1.3-9.1c0.2-0.4,0.3-0.6,0.4-0.7c-0.8,2.7-0.7,5.9-1,8.7c-0.3,2.7,0,5.5-0.1,8.2c0,0.1,0,0.2-0.1,0.2
	C96.3,76.6,96.4,74.2,96.3,71.8z M98.2,62.1c0.2,1,0.5,2.1,0.6,3.1c-0.5,4.2-0.6,8.4-1.5,12.4c0-2-0.1-3.9,0-5.9
	c0.1-1.7,0.4-3.3,0.5-5C97.9,65.1,97.8,63.6,98.2,62.1z M98.8,65.7c0.7,4.5,0.6,8.8-1.3,13.1C98.7,74.6,98.6,69.7,98.8,65.7z
	 M98.5,62.4c0.3,0.5,0.5,1.3,0.7,1.6c0.9,1.6,1,3.6,1,5.4c0.1,3.3-0.5,6.5-2.4,9.2C100.3,73.8,99.9,67.5,98.5,62.4z M115.4,81.4
	c0.1,0.1,0.1,0.2,0.1,0.3c-0.3,0.1-0.6,0.3-0.9,0.4C114.9,81.8,115.1,81.6,115.4,81.4z M112.6,81.7c-0.5,0-0.9,0-1.3,0.1
	c1.2-0.3,2.6-0.6,3.8-0.5c-0.5,0.4-1,0.7-1.6,1c-1,0.2-2,0.4-3.1,0.5c-2.5,0.3-4.9,0.8-7.4,1.2c-0.9,0.1-1.7,0.3-2.6,0.5
	c1.7-0.5,3.4-1.1,5.1-1.5c0.6-0.1,1.2-0.3,1.7-0.4c1.7-0.2,3.5-0.4,5.3-0.7C112.7,81.9,112.7,81.7,112.6,81.7z M114.2,80.9
	c0.2,0,0.5,0.1,0.6,0.1c-1.9-0.3-4.3,0.5-6.3,1c-4.1,0.4-8.1,1.3-11.8,3.1c-0.1,0.1,0,0.2,0.1,0.2c2.2-1,4.5-1.6,6.8-2.1
	c-2.2,0.5-4.4,1.2-6.5,2.1c-0.5,0.2-1.1,0.3-1.6,0.5C100.7,81.9,107.8,80.3,114.2,80.9z M95.3,86.5c-0.5,0.1-0.9,0.2-1.4,0.3
	c0.5-0.2,0.9-0.4,1.3-0.5c0,0.1,0,0.1,0.1,0.1c0.6-0.3,1.3-0.5,2-0.7c2.5-0.7,5-1.1,7.6-1.5c2.2-0.4,4.6-0.5,6.9-0.9
	c-2,0.8-4.2,1.2-6.5,1.4C101.9,84.9,98.6,85.7,95.3,86.5C95.4,86.5,95.3,86.5,95.3,86.5z M112,84.9c-2.1,1.2-4.4,1.8-6.7,2.1
	c-2.3,0.3-4.7,0-7.1-0.1c0.4,0,0.7-0.1,1.1-0.1c2.8-0.3,5.5-0.6,8.3-1c1.4-0.2,3.2-0.5,4.8-1.1C112.2,84.8,112.1,84.9,112,84.9z
	 M106,85.6c-2.3,0.4-4.5,0.6-6.8,0.9c-0.8,0.1-1.6,0.2-2.3,0.3c-0.5,0-1.1,0-1.7,0h0c0,0-0.1,0-0.1,0c3.7-0.9,7.4-1.7,11.2-2.1
	c2.4-0.3,4.9-0.8,7-1.9c0.7-0.2,1.4-0.4,2.1-0.7c-0.1,0.1-0.2,0.3-0.3,0.5C112.9,84.8,109.1,85.2,106,85.6z"/>
<g>
	<path fill="#1A1A1A" d="M12.9,71.3c0,1.2,0.2,2.4,1,3.2c2.8-1,6.4-1.9,7.5-0.1c1.5,2.4-3.8,2.8-5.3,2.8c-0.8,0-1.6,0-2.3-0.1
		c-0.6,0.3-1.3,0.6-1.9,1c-3.4,2.2-5.7,5.2-5.5,9c0.4,8.2,14.2,2.7,15-2.8c0.2-1.3,4.4-1.1,4.2,0C24.5,91.6,5,98,2.4,88.6
		C0.8,83,5.6,78.2,10.8,75.7c-1.4-1-2.2-2.6-2.1-4.5c-3.5-0.5-6.9-2.2-8.6-5c-0.7-1.2,3.4-1.5,4.1-0.5C5.2,67.6,7,68.7,9,69.1
		c1.3-4.6,6.6-7.7,11.8-8c2.9-0.2,6.9,0.7,5.9,3.9C25.5,68.8,18,70.9,12.9,71.3z M22.2,62.8c-1.4-0.8-5.4,1.7-6.1,2.3
		c-1.4,1.1-2.4,2.5-2.9,4.2c0.3,0,0.6,0,0.9-0.1C15.4,69,25.9,65.3,22.2,62.8z"/>
	<path fill="#1A1A1A" d="M43.8,79.5c-0.3,1.7-5.3,2.5-5.8,2.5c0,0,0,0-0.1,0v0c0,0,0,0.1,0,0.1c0,0.1,0,0.1,0,0.2
		c0,0-0.1,0.1-0.1,0.2c-1.7,4.6-4.9,8.6-9.2,10.2c-4.9,2-7.4-2.3-7.3-5.9c0.1-4.1,0.8-8.1,1.9-11.7c0.4-1.2,4.6-0.8,4.2,0.5
		c-0.6,1.8-1,3.7-1.3,5.7c-0.3,1.8-1.6,9.4,1.3,8.8c1.2-0.9,2.3-2.1,3.3-3.2c1.5-1.7,2.6-3.8,3.3-5.9c-2.2-1.4-3.6-3.8-1.6-5.7
		c0.5-0.5,1.4-0.8,2.3-0.9c1.7-0.2,3.6,0.3,4.2,2c0,0.2,0.1,0.4,0.1,0.6c0.1,0.8,0,1.8-0.2,2.8c2.1-0.5,3-1.4,3.1-1.4
		C43.9,76.6,43.9,78.1,43.8,79.5z"/>
	<path fill="#1A1A1A" d="M61.9,87.4c-1.5,3.4-7.8,9.2-11.4,3.2c-0.3-0.5-0.5-0.9-0.5-1.4c-2.4,2.8-5.5,4.8-9,3.7
		c-4.8-1.4-2.5-7.3-1.1-10.4c2.3-4.9,6.1-8.6,11.7-7.7c0.3,0,0.5,0.1,0.8,0.1c0.1,0,0.2,0.1,0.4,0.1c0.5,0.2,0.9,0.4,1.2,0.7
		c1.3-0.2,3.4,0.3,3.3,0.5c-1.2,2.8-2.3,5.8-2.7,8.9c-0.3,2-0.3,3.6,0.5,5.3c0.1,0,0.1-0.1,0.3-0.2c0.4-0.3,0.7-0.6,1-0.9
		c0.6-0.6,1.1-1.3,1.5-2C58.2,86.3,62.1,87.1,61.9,87.4z M50.4,77c0-0.1-0.1-0.2-0.2-0.3c-3.1-0.7-5.8,5.4-6.7,7.6
		c-0.5,1.4-1,2.8-1.1,4.2c0,0.6-0.1,1.2,0.2,1.7c0.1,0.2,0.2,0.4,0.5,0.6c0.2,0,0.2,0,0.4-0.1c0.5-0.2,0.8-0.5,1.2-0.8
		c0.9-0.8,1.7-1.8,2.5-2.8c1.5-2.1,3.1-4.6,3.6-7.2C50.8,78.9,50.8,78,50.4,77z M50,76.7C50,76.7,50.1,76.7,50,76.7
		C50.1,76.7,50,76.7,50,76.7z"/>
	<path fill="#1A1A1A" d="M78.5,88.8c-2.6,3.3-10.5,7.7-12.2,0.9C65.7,87,67.7,82,69.5,80c0-0.1,0-0.2,0.1-0.3
		c-0.7,0.1-1.4,0.2-1.9,0.3c-0.5,0-0.9,0-1.4,0c-0.2,0.4-0.3,0.8-0.5,1c-1.9,3.4-1.9,3.4-3.8,6.4c-0.8,1.4-5,0.7-4.1-0.6
		c2.4-3.7,2.5-4.2,4.4-8c-2-1.4-2.9-3.8-0.5-5.7c1.6-1.4,5.7-1.6,6.2,1c0.2,0.9-0.2,2.2-0.6,3.4c0.5,0,1-0.2,1.5-0.3
		c0.9-0.2,1.9-0.4,2.9-0.2c4.5,0.7,0.8,5.2-0.2,7.6c-0.7,1.5-2,6.6,0.1,5.9c1.2-0.4,2.4-1.9,3.2-2.9C75.8,86.4,79.9,87.1,78.5,88.8z
		"/>
	<path fill="#1A1A1A" d="M98.9,87.4c-1.5,3.4-7.8,9.2-11.4,3.2c-0.3-0.5-0.5-0.9-0.5-1.4c-2.4,2.8-5.5,4.8-9,3.7
		c-4.8-1.4-2.5-7.3-1.1-10.4c2.3-4.9,6.1-8.6,11.7-7.7c0.3,0,0.5,0.1,0.8,0.1c0.1,0,0.2,0.1,0.4,0.1c0.5,0.2,0.8,0.4,1.2,0.7
		c1.3-0.2,3.4,0.3,3.3,0.5c-1.2,2.8-2.3,5.8-2.7,8.9c-0.3,2-0.3,3.6,0.5,5.3c0.1,0,0.1-0.1,0.3-0.2c0.4-0.3,0.7-0.6,1-0.9
		c0.6-0.6,1.1-1.3,1.5-2C95.2,86.3,99.1,87.1,98.9,87.4z M87.4,77c0-0.1-0.1-0.2-0.2-0.3c-3.1-0.7-5.8,5.4-6.7,7.6
		c-0.5,1.4-1,2.8-1.1,4.2c0,0.6-0.1,1.2,0.2,1.7c0.1,0.2,0.2,0.4,0.5,0.6c0.2,0,0.2,0,0.4-0.1c0.5-0.2,0.8-0.5,1.2-0.8
		c0.9-0.8,1.7-1.8,2.5-2.8c1.5-2.1,3.1-4.6,3.6-7.2C87.9,78.9,87.8,78,87.4,77z M87.1,76.7C87.1,76.7,87.1,76.7,87.1,76.7
		C87.1,76.7,87.1,76.7,87.1,76.7z"/>
</g>
</svg>
