<?xml version="1.0" encoding="utf-8"?>
<!-- Generator: Adobe Illustrator 18.1.1, SVG Export Plug-In . SVG Version: 6.00 Build 0)  -->
<svg version="1.0" id="Layer_1" xmlns="http://www.w3.org/2000/svg" xmlns:xlink="http://www.w3.org/1999/xlink" x="0px" y="0px"
	 viewBox="0 0 100 30" enable-background="new 0 0 100 30" xml:space="preserve">
<path fill="#098178" d="M91.6,18.1c0,0,0-0.1,0-0.1c0,0,0,0,0,0c0,0,0,0,0,0c0.1-0.1,0-0.3-0.1-0.2c0,0,0,0-0.1,0
	c-1.1-1.3-4.8-0.5-6.1-0.4c-3.6,0.4-7,1.7-9.8,3.9c-0.6,0.2-1.3,0.5-1.9,0.8c0,0-0.1,0-0.1,0c1.9-1.6,3.6-3.4,5.4-5.1
	c0.4,0.1,0.9,0.1,1.2,0.1c0.5,0,0.9-0.1,1.4-0.3c0,0.1,0.1,0.1,0.2,0.2c0.5,0.4,1.3-0.1,1.6-0.5c0.2-0.4-0.2-0.8-0.6-0.9
	c-0.2,0-0.4,0-0.6,0.1c0,0-0.1,0-0.1,0c-0.1,0.1-0.2,0.2-0.3,0.3c0,0,0,0.1-0.1,0.1c-0.1,0.2-0.2,0.4-0.1,0.6
	c-0.7,0.3-1.5,0.3-2.3,0.2c0.2-0.2,0.5-0.5,0.7-0.7c0.7-0.7,1.4-1.4,2-2.2c0,0.1,0,0.2,0.1,0.2c0.1-0.1,0.3-0.1,0.4-0.1
	c0.5,0,1-0.1,1.6-0.2c0,0.6,0.3,1.3,1,1.4c0.1,0,0.1-0.1,0-0.1c-0.1-0.2-0.4-0.3-0.5-0.5c-0.2-0.2-0.3-0.5-0.4-0.8
	c0.3-0.1,0.6-0.1,0.9-0.2c0.2,0.4,1,0.6,1.5,0.5c0,0,0,0,0,0c0,0.1,0,0.2,0.1,0.3c0,0.1,0.1,0.3,0.2,0.4c0.3,0.4,0.9,0.5,1.4,0.4
	c0.5-0.1,1-0.6,0.9-1.1c0-0.5-0.5-0.7-1-0.8c-0.5-0.1-1.1,0-1.4,0.3c-0.1,0.1-0.1,0.1-0.1,0.2c-0.2-0.1-0.5-0.1-0.8-0.2
	c-0.2,0-0.4-0.1-0.5-0.3c0.3-0.1,0.6-0.2,1-0.4c0,0,0,0,0,0c0,0,0.1,0.1,0.1,0c0,0,0-0.1,0-0.1c0.6-0.3,1.2-0.5,1.7-0.9
	c0.3,0.7,1.5,0.9,2.3,0.4c0.3-0.1,0.6-0.2,0.8-0.3c0.3-0.2,0.6-0.4,0.9-0.7c0,0,0.1,0,0.1-0.1c0.7-0.3,2.2-1.3,1.2-2.2
	c-0.2-0.1-0.4-0.2-0.7-0.2c-0.3-0.2-0.8-0.3-1.3-0.2c-1.3,0-2.4,1.1-3.2,2.2c-0.2,0.3-0.3,0.5-0.3,0.8l0,0c0,0,0,0.1,0,0.1
	c-0.5,0.3-1,0.5-1.5,0.7c0-0.2,0-0.4,0.1-0.6c0.1-0.3,0.2-0.5,0.3-0.7c0.1,0,0.3,0,0.4,0c0.2,0,0.4-0.1,0.5-0.3
	c0.2-0.3,0-0.7-0.3-0.8c-0.1,0-0.1,0-0.2,0c0-0.1,0-0.2-0.1-0.1c-0.1,0.1-0.2,0.2-0.4,0.3l0,0l0,0c0,0-0.1,0.1-0.1,0.1
	c-0.1,0.2-0.2,0.5-0.1,0.7c0,0,0,0.1,0.1,0.1c-0.3,0.5-0.5,1-0.5,1.5c-1.3,0.5-2.7,0.7-4,1.2c0,0,0,0,0-0.1c0,0-0.1-0.1-0.1-0.1
	c0.5-0.6,0.9-1.2,1.3-1.9c0,0,0,0,0,0c0.2-0.2,0.3-0.5,0.5-0.7c0.1-0.2,0.2-0.4,0.4-0.6c1-0.4,2-1,2.9-1.7c0.8,0.1,1.7,0,2.4-0.4
	c0.1-0.1,0-0.2-0.1-0.2c-0.6,0.4-1.4,0.4-2.1,0.4c0.5-0.4,0.9-0.9,1.2-1.4c0,0,0,0,0.1,0c0.1,0,0.2-0.1,0.1-0.2c0,0,0,0,0,0
	c0-0.1,0.1-0.1,0.1-0.2c0.1,0.1,0.2,0.1,0.3,0.1C89.2,7,89.5,7,89.6,7c1-0.1,1.7-1.4,1.9-2.3c0.2-0.8-0.1-1.8-1.1-1.9
	c-0.1,0-0.1,0-0.2,0c-0.3,0-0.5,0.1-0.7,0.3c-0.6,0.4-1.1,1.2-1.4,1.8c-0.3,0.7-0.5,1.6,0.2,2.1c-0.4,0.6-1,1.1-1.6,1.4l0,0
	c0,0-0.1,0-0.1,0C86,9,85.2,9.4,84.4,10c0.5-0.9,0.9-1.8,0.9-2.8c0.1,0,0.3,0,0.5,0c0.8-0.3,0.7-1.6,0.6-2.3
	c-0.2-0.8-0.5-1.8-1.3-2.1c-0.8-0.4-1.3,0.9-1.4,1.5C83.5,5.4,84,7,85,7.7h0c-0.2,1.3-1,2.5-1.7,3.7C83.2,11,83,10.6,83,10.3
	c0-0.3,0-0.6,0-0.9c0.1,0,0.2,0,0.3,0c0,0,0.1,0,0.1-0.1c0,0,0.1-0.1,0.1-0.1c0.1-0.2,0.2-0.5,0.1-0.7c0-0.2,0-0.4-0.1-0.5
	c-0.1-0.1-0.2-0.2-0.3-0.3l0,0l0,0c0,0,0-0.1,0-0.1c-0.4,0-0.8,0.6-0.9,1c0,0.4,0.1,0.7,0.5,0.8c0,0,0,0,0,0c0,0,0.1,0,0.1,0
	c-0.1,0.8-0.1,1.6,0.3,2.2c0,0-0.1,0.1-0.1,0.2c-1.2,1.9-2.7,3.5-4.4,5c-0.1,0-0.1,0-0.2,0c0,0-0.1,0,0,0.1c0,0,0.1,0,0.1,0.1
	c0,0-0.1,0.1-0.1,0.1c-1.1,1.1-2.2,2.1-3.4,3.1c1-1,1.7-2.3,2.2-3.7l0,0c0,0,0.1,0,0.1,0c1.6-1.7,2.1-4,2.3-6.3
	c0.1-1.2,0-2.5-0.2-3.7C79.3,5.1,78.3,4,78,2.7c0-0.1-0.1-0.1-0.2,0C76.7,5,76.3,7.4,76.3,10c0,2-0.2,4.3,0.5,6.3
	c-0.4,1.2-1,2.3-1.7,3.5l0,0c-0.4,0.5-0.7,0.9-1.1,1.4c-2.1,1.8-4.3,3.6-6.5,5.3c-0.1,0.1,0,0.2,0.1,0.2c1.8-1.1,3.6-2.4,5.2-3.8
	l0,0c0,0,0.1,0,0.1-0.1c0.4-0.1,0.8-0.3,1.1-0.4c0,0,0,0,0,0c0.2,0,0.4-0.1,0.5-0.1c3.2-0.2,6.5,0.5,9.7-0.1
	C87.1,21.6,89.7,20.2,91.6,18.1z M82.7,16c0.1,0,0.3,0.1,0.2,0.3c-0.1,0.4-0.7,0.6-1.1,0.5c0,0,0,0-0.1,0c0.4,0,0.7-0.2,0.9-0.5
	C82.7,16.2,82.7,16.1,82.7,16C82.6,16,82.6,16,82.7,16z M81.6,16.4C81.6,16.4,81.6,16.4,81.6,16.4c0.1-0.1,0.2-0.3,0.3-0.3
	C82,16,82.2,16,82.4,16c0,0,0,0,0,0C82.1,16.1,81.9,16.3,81.6,16.4L81.6,16.4z M88.3,14.3c0-0.1,0.1-0.1,0.1-0.2c0,0,0,0,0,0
	c0.1,0,0.1-0.1,0.1-0.1c0.2,0.3-0.2,0.7-0.4,0.8c-0.2,0.1-0.4,0.1-0.6,0C87.9,14.7,88.2,14.6,88.3,14.3z M87.4,14.3
	c0.2,0,0.5,0,0.7-0.1c-0.1,0.1-0.3,0.2-0.5,0.3c-0.1,0-0.4,0-0.6-0.1C87.1,14.4,87.2,14.3,87.4,14.3C87.3,14.3,87.4,14.3,87.4,14.3z
	 M87.7,13.6c0.1,0,0.2,0,0.3,0c-0.4,0.1-0.7,0.3-1.1,0.5c0-0.1,0.1-0.3,0.2-0.4v0C87.3,13.7,87.6,13.6,87.7,13.6z M89.6,11.1
	c0.1-0.1,0.3-0.3,0.5-0.3c0.1,0,0.2,0,0.3,0c0.1,0,0.1,0,0.1-0.1h0c-0.2,0.4-0.6,0.7-1.1,0.7C89.5,11.2,89.5,11.2,89.6,11.1z
	 M89.1,12.3c-0.3,0-0.5-0.1-0.6-0.2c0.1,0,0.3,0.1,0.5,0.1C89,12.2,89.1,12.3,89.1,12.3C89.1,12.3,89.1,12.3,89.1,12.3z M90.6,11.1
	c0.1-0.2,0.2-0.4,0.3-0.6c0-0.1,0-0.1-0.1-0.1c-0.1,0-0.2,0-0.4,0l0,0c0.6-0.2,1.3-0.4,1.8-0.4C91.9,10.5,91.3,10.9,90.6,11.1z
	 M91.3,11.3c0.3-0.2,0.6-0.4,0.9-0.6c-0.1,0.1-0.2,0.2-0.3,0.3C91.7,11.1,91.5,11.2,91.3,11.3z M92.7,9.3C92.8,9.4,93,9.6,93,9.9
	c0,0.1,0.2,0.1,0.2,0c0-0.2-0.1-0.3-0.1-0.5c0,0,0,0,0.1,0c0.6,0.4,0.2,0.8-0.4,1.2c0.1-0.1,0.1-0.3,0.1-0.4
	C92.9,9.8,92.8,9.5,92.7,9.3C92.6,9.3,92.6,9.3,92.7,9.3z M92.1,9.4c0.1,0,0.2,0.1,0.2,0.2c-0.5,0-1,0.1-1.5,0.3
	C91.3,9.6,91.7,9.5,92.1,9.4z M90.2,9.7c0.2-0.2,0.5-0.4,0.9-0.5c0.1,0,0.2,0,0.3-0.1l0,0c0,0,0.1,0,0.1,0C91,9.3,90.6,9.5,90.2,9.7
	z M87.1,10.7c0.1-0.1-0.1-0.2-0.1-0.1c0,0-0.1,0.1-0.1,0.2c0-0.1,0-0.3,0.2-0.4c0.1,0,0.1,0,0.2,0c0.1,0,0.2,0.2,0.2,0.3
	c0,0.1-0.3,0.2-0.4,0.2C87.1,10.8,87.1,10.7,87.1,10.7z M91.2,4.9c-0.2,0.7-0.7,1.5-1.5,1.7l0,0c0.3-0.2,0.5-0.6,0.7-0.9
	c0,0,0,0,0,0c0.6-0.6,0.8-1.5,0.5-2.3c0-0.1,0-0.1-0.1-0.2C91.3,3.6,91.3,4.5,91.2,4.9z M89,4.3c0.4-0.5,0.9-1,1.3-1.1c0,0,0,0,0,0
	c0.2,0.1,0.3,0.3,0.4,0.6c0,0.3,0,0.5,0,0.8c0-0.4-0.3-0.7-0.8-0.7C89.6,3.9,89.3,4.1,89,4.3z M88.7,5.3c0.2-0.5,0.8-1,1.4-1
	c0.3,0,0.4,0.2,0.3,0.5v0c0-0.1-0.1-0.1-0.2-0.1c-0.4,0.1-1.2,0.6-1.6,1.2C88.6,5.7,88.6,5.5,88.7,5.3z M88.3,5.9
	c0,0.3,0.2,0.6,0.4,0.8c0,0.1-0.1,0.1-0.1,0.2C88.3,6.7,88.2,6.3,88.3,5.9z M89,6.5c0,0,0-0.1,0-0.2c0-0.3,0.3-0.5,0.4-0.7
	c0.2-0.2,0.8-0.8,0.7-0.4c0,0,0,0.1,0.1,0.1c-0.2,0.4-0.5,0.9-0.6,1C89.5,6.4,89.2,6.6,89,6.5C89,6.6,89,6.5,89,6.5z M85.9,6.6
	c-0.1,0.1-0.2,0.3-0.2,0.3C86,6.4,86.1,5.7,86,5C86.1,5.6,86.2,6.1,85.9,6.6z M85.6,4.9C85.6,4.9,85.6,4.9,85.6,4.9
	C85.6,4.9,85.6,4.9,85.6,4.9c0.2,0.6,0.1,1.3-0.2,1.9C84.9,6.2,84.9,5.1,85.6,4.9z M84,5.2c-0.1-0.5,0-2.3,0.9-2
	c0.3,0.1,0.5,0.4,0.7,0.7c-0.2-0.4-0.6-0.6-1-0.3C84.1,3.9,84,4.6,84,5.2C84,5.2,84,5.2,84,5.2z M84.6,4.1c0.4-0.7,0.8,0.1,0.9,0.5
	c0,0,0,0,0,0c-0.9,0.1-0.9,1.2-0.6,2c-0.1-0.1-0.2-0.3-0.3-0.5C84.3,5.5,84.2,4.7,84.6,4.1z M84.5,6.7c0.2,0.3,0.4,0.5,0.6,0.5
	c0,0.1,0,0.1,0,0.2C84.8,7.3,84.7,7,84.5,6.7z M83.1,9.1c0-0.1,0-0.2,0-0.3c0-0.1-0.1-0.1-0.1,0c0,0,0,0.1,0,0.1c0,0,0,0,0,0
	c0-0.2,0.1-0.4,0.2-0.6c0,0,0,0,0,0c0,0,0,0,0.1,0.1c0.1,0.2,0.1,0.5,0,0.7C83.2,9.1,83.1,9.1,83.1,9.1z M76.6,10.7
	c0-2.3,0.1-4.6,0.9-6.8c0.1-0.3,0.2-0.5,0.3-0.5c-0.6,2-0.5,4.3-0.8,6.4c-0.2,2,0,4.1-0.1,6.1c0,0,0,0.1,0,0.2
	C76.6,14.3,76.6,12.5,76.6,10.7z M77.9,3.5c0.2,0.8,0.3,1.5,0.5,2.3c-0.4,3.2-0.4,6.3-1.1,9.2c0-1.5-0.1-2.9,0-4.4
	c0.1-1.2,0.3-2.5,0.4-3.7C77.7,5.7,77.7,4.6,77.9,3.5z M78.4,6.1c0.5,3.3,0.4,6.5-1,9.7C78.3,12.7,78.3,9.1,78.4,6.1z M78.2,3.7
	c0.2,0.4,0.4,0.9,0.5,1.2c0.6,1.2,0.7,2.7,0.7,4c0,2.5-0.4,4.8-1.8,6.8C79.5,12.1,79.2,7.5,78.2,3.7z M90.7,17.8c0,0.1,0,0.1,0,0.2
	c-0.2,0.1-0.5,0.2-0.7,0.3C90.3,18.1,90.5,18,90.7,17.8z M88.6,18.1c-0.3,0-0.6,0-1,0c0.9-0.2,1.9-0.5,2.8-0.4
	c-0.4,0.3-0.8,0.5-1.2,0.7c-0.7,0.2-1.5,0.3-2.3,0.4c-1.8,0.2-3.7,0.6-5.5,0.9c-0.6,0.1-1.3,0.2-1.9,0.3c1.2-0.4,2.5-0.8,3.8-1.1
	c0.4-0.1,0.9-0.2,1.3-0.3c1.3-0.2,2.6-0.3,3.9-0.5C88.7,18.2,88.7,18,88.6,18.1z M89.8,17.4c0.2,0,0.3,0,0.5,0.1
	c-1.4-0.2-3.2,0.4-4.7,0.7c-3,0.3-6,1-8.7,2.3c-0.1,0,0,0.2,0,0.1c1.6-0.8,3.3-1.2,5-1.5c-1.6,0.4-3.3,0.9-4.8,1.6
	c-0.4,0.1-0.8,0.2-1.2,0.4C79.8,18.2,85.1,17,89.8,17.4z M75.8,21.6c-0.3,0-0.7,0.1-1.1,0.2c0.3-0.1,0.6-0.3,1-0.4
	c0,0,0,0.1,0.1,0.1c0.5-0.2,1-0.4,1.5-0.5c1.8-0.5,3.7-0.8,5.6-1.1c1.6-0.3,3.4-0.4,5.1-0.7c-1.5,0.6-3.1,0.9-4.8,1.1
	C80.7,20.4,78.2,21,75.8,21.6C75.8,21.6,75.8,21.6,75.8,21.6z M88.2,20.4c-1.5,0.9-3.2,1.4-5,1.6c-1.7,0.2-3.5,0-5.3-0.1
	c0.3,0,0.5-0.1,0.8-0.1c2.1-0.2,4.1-0.5,6.1-0.8c1-0.2,2.4-0.4,3.6-0.8C88.4,20.3,88.3,20.4,88.2,20.4z M83.8,21
	c-1.7,0.3-3.4,0.4-5,0.6c-0.6,0.1-1.2,0.2-1.7,0.2c-0.4,0-0.8,0-1.2,0h0c0,0,0,0-0.1,0c2.7-0.7,5.5-1.3,8.3-1.6
	c1.8-0.2,3.6-0.6,5.2-1.4c0.5-0.1,1.1-0.3,1.6-0.5c0,0.1-0.1,0.2-0.2,0.3C88.9,20.4,86,20.6,83.8,21z"/>
<g>
	<path fill="#B20F0F" d="M14.6,10.3c0,0.9,0.1,1.8,0.7,2.3c2.1-0.8,4.8-1.4,5.6-0.1c1.1,1.8-2.8,2.1-3.9,2.1c-0.6,0-1.2,0-1.7-0.1
		c-0.5,0.2-0.9,0.5-1.4,0.7c-2.5,1.6-4.2,3.9-4.1,6.7c0.3,6.1,10.5,2,11.2-2.1c0.1-1,3.3-0.8,3.1,0c-0.9,5.5-15.3,10.3-17.3,3.3
		C5.6,19,9.1,15.4,13,13.6c-1-0.8-1.6-1.9-1.6-3.3C8.8,9.9,6.3,8.7,5.1,6.6c-0.5-0.9,2.5-1.1,3-0.4c0.8,1.4,2.1,2.1,3.6,2.5
		c0.9-3.4,4.9-5.7,8.8-6c2.1-0.1,5.2,0.5,4.4,2.9C23.9,8.5,18.4,10,14.6,10.3z M21.5,4c-1-0.6-4,1.3-4.5,1.7c-1,0.8-1.8,1.9-2.1,3.1
		c0.2,0,0.4,0,0.7-0.1C16.4,8.6,24.3,5.9,21.5,4z"/>
	<path fill="#B20F0F" d="M37.5,16.4c-0.2,1.3-3.9,1.8-4.3,1.9c0,0,0,0-0.1,0v0c0,0,0,0.1,0,0.1c0,0.1,0,0.1,0,0.2
		c0,0-0.1,0.1-0.1,0.1c-1.3,3.4-3.7,6.4-6.8,7.6c-3.6,1.5-5.5-1.7-5.4-4.4c0.1-3,0.6-6,1.4-8.7c0.3-0.9,3.4-0.6,3.1,0.4
		c-0.4,1.4-0.7,2.8-1,4.2c-0.2,1.3-1.2,7,1,6.5c0.9-0.7,1.7-1.5,2.5-2.4c1.1-1.3,1.9-2.8,2.4-4.4c-1.6-1-2.7-2.8-1.2-4.3
		c0.4-0.4,1-0.6,1.7-0.7c1.2-0.2,2.7,0.2,3.1,1.5c0,0.1,0.1,0.3,0.1,0.4c0.1,0.6,0,1.4-0.2,2.1c1.6-0.4,2.2-1,2.3-1
		C37.6,14.2,37.6,15.4,37.5,16.4z"/>
	<path fill="#B20F0F" d="M51,22.3c-1.1,2.5-5.8,6.8-8.4,2.4c-0.2-0.3-0.3-0.7-0.4-1c-1.8,2.1-4.1,3.5-6.7,2.8
		c-3.6-1-1.9-5.4-0.8-7.7c1.7-3.6,4.6-6.4,8.7-5.7c0.2,0,0.4,0.1,0.6,0.1c0.1,0,0.2,0.1,0.3,0.1c0.4,0.1,0.6,0.3,0.9,0.5
		c1-0.2,2.5,0.2,2.4,0.4c-0.9,2.1-1.7,4.3-2,6.6c-0.2,1.5-0.2,2.7,0.4,4c0.1,0,0.1-0.1,0.2-0.2c0.3-0.2,0.5-0.4,0.8-0.7
		c0.4-0.4,0.8-0.9,1.1-1.5C48.2,21.4,51.1,22,51,22.3z M42.4,14.6c0-0.1-0.1-0.2-0.2-0.2c-2.3-0.5-4.3,4-5,5.7
		c-0.4,1-0.8,2.1-0.8,3.2c0,0.4-0.1,0.9,0.1,1.3c0.1,0.1,0.2,0.3,0.3,0.4c0.1,0,0.2,0,0.3-0.1c0.3-0.1,0.6-0.4,0.9-0.6
		c0.7-0.6,1.3-1.3,1.8-2.1c1.1-1.6,2.3-3.4,2.7-5.3C42.8,15.9,42.8,15.3,42.4,14.6z M42.2,14.3C42.2,14.3,42.2,14.3,42.2,14.3
		C42.2,14.3,42.2,14.3,42.2,14.3z"/>
	<path fill="#B20F0F" d="M63.3,23.3c-2,2.4-7.8,5.7-9,0.7c-0.5-2,1-5.7,2.3-7.2c0-0.1,0-0.1,0.1-0.2c-0.5,0.1-1,0.2-1.4,0.2
		c-0.3,0-0.7,0-1,0c-0.1,0.3-0.2,0.6-0.3,0.8c-1.4,2.5-1.4,2.5-2.8,4.7c-0.6,1-3.7,0.5-3-0.5c1.8-2.7,1.9-3.1,3.3-5.9
		c-1.5-1-2.2-2.8-0.4-4.3c1.2-1,4.2-1.2,4.6,0.8c0.1,0.7-0.1,1.6-0.5,2.5c0.4,0,0.8-0.2,1.1-0.2c0.7-0.1,1.4-0.3,2.1-0.2
		c3.3,0.5,0.6,3.9-0.1,5.6c-0.5,1.1-1.5,4.9,0.1,4.4c0.9-0.3,1.8-1.4,2.4-2.2C61.3,21.5,64.3,22.1,63.3,23.3z"/>
	<path fill="#B20F0F" d="M78.5,22.3c-1.1,2.5-5.8,6.8-8.4,2.4c-0.2-0.3-0.3-0.7-0.4-1c-1.8,2.1-4.1,3.5-6.7,2.8
		c-3.6-1-1.9-5.4-0.8-7.7c1.7-3.6,4.6-6.4,8.7-5.7c0.2,0,0.4,0.1,0.6,0.1c0.1,0,0.2,0.1,0.3,0.1c0.4,0.1,0.6,0.3,0.9,0.5
		c1-0.2,2.5,0.2,2.4,0.4c-0.9,2.1-1.7,4.3-2,6.6c-0.2,1.5-0.2,2.7,0.4,4c0.1,0,0.1-0.1,0.2-0.2c0.3-0.2,0.5-0.4,0.8-0.7
		c0.4-0.4,0.8-0.9,1.1-1.5C75.7,21.4,78.6,22,78.5,22.3z M69.9,14.6c0-0.1-0.1-0.2-0.2-0.2c-2.3-0.5-4.3,4-5,5.7
		c-0.4,1-0.8,2.1-0.8,3.2c0,0.4-0.1,0.9,0.1,1.3c0.1,0.1,0.2,0.3,0.3,0.4c0.1,0,0.2,0,0.3-0.1c0.3-0.1,0.6-0.4,0.9-0.6
		c0.7-0.6,1.3-1.3,1.8-2.1c1.1-1.6,2.3-3.4,2.7-5.3C70.3,15.9,70.2,15.3,69.9,14.6z M69.7,14.3C69.7,14.3,69.7,14.3,69.7,14.3
		C69.7,14.3,69.7,14.3,69.7,14.3z"/>
</g>
<g>
</g>
<g>
</g>
<g>
</g>
<g>
</g>
<g>
</g>
<g>
</g>
<g>
</g>
<g>
</g>
<g>
</g>
<g>
</g>
<g>
</g>
<g>
</g>
<g>
</g>
<g>
</g>
<g>
</g>
</svg>
